<?xml version="1.0" encoding="UTF-8" standalone="no"?>
<!-- Generator: Adobe Illustrator 19.0.0, SVG Export Plug-In . SVG Version: 6.00 Build 0)  -->

<svg
   xmlns:dc="http://purl.org/dc/elements/1.1/"
   xmlns:cc="http://creativecommons.org/ns#"
   xmlns:rdf="http://www.w3.org/1999/02/22-rdf-syntax-ns#"
   xmlns:svg="http://www.w3.org/2000/svg"
   xmlns="http://www.w3.org/2000/svg"
   xmlns:sodipodi="http://sodipodi.sourceforge.net/DTD/sodipodi-0.dtd"
   xmlns:inkscape="http://www.inkscape.org/namespaces/inkscape"
   version="1.1"
   id="Capa_1"
   x="0px"
   y="0px"
   viewBox="0 0 60 60"
   style="enable-background:new 0 0 60 60;"
   xml:space="preserve"
   sodipodi:docname="temperature.svg"
   inkscape:version="0.92.4 (unknown)"><metadata
   id="metadata75"><rdf:RDF><cc:Work
       rdf:about=""><dc:format>image/svg+xml</dc:format><dc:type
         rdf:resource="http://purl.org/dc/dcmitype/StillImage" /></cc:Work></rdf:RDF></metadata><defs
   id="defs73" /><sodipodi:namedview
   pagecolor="#ffffff"
   bordercolor="#666666"
   borderopacity="1"
   objecttolerance="10"
   gridtolerance="10"
   guidetolerance="10"
   inkscape:pageopacity="0"
   inkscape:pageshadow="2"
   inkscape:window-width="2560"
   inkscape:window-height="1080"
   id="namedview71"
   showgrid="false"
   inkscape:zoom="3.9333333"
   inkscape:cx="21.101695"
   inkscape:cy="30"
   inkscape:window-x="1920"
   inkscape:window-y="0"
   inkscape:window-maximized="0"
   inkscape:current-layer="Capa_1" />
<path
   style="fill:#D0E8F9;"
   d="M37,38.787V7c0-3.314-2.686-6-6-6h0c-3.314,0-6,2.686-6,6v31.787  c-3.341,2.18-5.429,6.121-4.925,10.511c0.575,5.011,4.654,9.076,9.668,9.632C36.381,59.666,42,54.489,42,48  C42,44.14,40.008,40.75,37,38.787z"
   id="path2" />
<path
   style="fill:#0096E6;"
   d="M32,43.101V37c0-0.553-0.447-1-1-1s-1,0.447-1,1v6.101c-2.282,0.463-4,2.48-4,4.899  c0,2.761,2.239,5,5,5s5-2.239,5-5C36,45.581,34.282,43.564,32,43.101z"
   id="path4" />
<g
   id="g32">
	<path
   style="fill:#FFFFFF;"
   d="M27,6h-2c-0.553,0-1,0.447-1,1s0.447,1,1,1h2c0.553,0,1-0.447,1-1S27.553,6,27,6z"
   id="path6" />
	<path
   style="fill:#FFFFFF;"
   d="M27,11h-2c-0.553,0-1,0.447-1,1s0.447,1,1,1h2c0.553,0,1-0.447,1-1S27.553,11,27,11z"
   id="path8" />
	<path
   style="fill:#FFFFFF;"
   d="M27,16h-2c-0.553,0-1,0.447-1,1s0.447,1,1,1h2c0.553,0,1-0.447,1-1S27.553,16,27,16z"
   id="path10" />
	<path
   style="fill:#FFFFFF;"
   d="M27,21h-2c-0.553,0-1,0.447-1,1s0.447,1,1,1h2c0.553,0,1-0.447,1-1S27.553,21,27,21z"
   id="path12" />
	<path
   style="fill:#FFFFFF;"
   d="M27,26h-2c-0.553,0-1,0.447-1,1s0.447,1,1,1h2c0.553,0,1-0.447,1-1S27.553,26,27,26z"
   id="path14" />
	<path
   style="fill:#FFFFFF;"
   d="M27,31h-2c-0.553,0-1,0.447-1,1s0.447,1,1,1h2c0.553,0,1-0.447,1-1S27.553,31,27,31z"
   id="path16" />
	<path
   style="fill:#FFFFFF;"
   d="M27,36h-2c-0.553,0-1,0.447-1,1s0.447,1,1,1h2c0.553,0,1-0.447,1-1S27.553,36,27,36z"
   id="path18" />
	<path
   style="fill:#FFFFFF;"
   d="M35,10h2c0.553,0,1-0.447,1-1s-0.447-1-1-1h-2c-0.553,0-1,0.447-1,1S34.447,10,35,10z"
   id="path20" />
	<path
   style="fill:#FFFFFF;"
   d="M37,13h-2c-0.553,0-1,0.447-1,1s0.447,1,1,1h2c0.553,0,1-0.447,1-1S37.553,13,37,13z"
   id="path22" />
	<path
   style="fill:#FFFFFF;"
   d="M37,18h-2c-0.553,0-1,0.447-1,1s0.447,1,1,1h2c0.553,0,1-0.447,1-1S37.553,18,37,18z"
   id="path24" />
	<path
   style="fill:#FFFFFF;"
   d="M37,23h-2c-0.553,0-1,0.447-1,1s0.447,1,1,1h2c0.553,0,1-0.447,1-1S37.553,23,37,23z"
   id="path26" />
	<path
   style="fill:#FFFFFF;"
   d="M37,28h-2c-0.553,0-1,0.447-1,1s0.447,1,1,1h2c0.553,0,1-0.447,1-1S37.553,28,37,28z"
   id="path28" />
	<path
   style="fill:#FFFFFF;"
   d="M37,33h-2c-0.553,0-1,0.447-1,1s0.447,1,1,1h2c0.553,0,1-0.447,1-1S37.553,33,37,33z"
   id="path30" />
</g>
<path
   style="fill:#e0e8e4;fill-opacity:1"
   d="M54.83,13.634L52,12l2.83-1.634C55.309,10.09,55.473,9.479,55.196,9  c-0.277-0.479-0.89-0.643-1.366-0.366L51,10.268V7c0-0.553-0.447-1-1-1s-1,0.447-1,1v3.268l-2.83-1.634  C45.692,8.357,45.08,8.521,44.804,9c-0.276,0.479-0.112,1.09,0.366,1.366L48,12l-2.83,1.634c-0.479,0.276-0.643,0.888-0.366,1.366  c0.186,0.321,0.521,0.5,0.867,0.5c0.17,0,0.342-0.043,0.499-0.134L49,13.732V17c0,0.553,0.447,1,1,1s1-0.447,1-1v-3.268l2.83,1.634  c0.157,0.091,0.329,0.134,0.499,0.134c0.346,0,0.682-0.179,0.867-0.5C55.473,14.521,55.309,13.91,54.83,13.634z"
   id="path34" />
<path
   style="fill:#e0e8e4;fill-opacity:1"
   d="M14.83,40.634L12,39l2.83-1.634c0.479-0.276,0.643-0.888,0.366-1.366  c-0.277-0.479-0.891-0.643-1.366-0.366L11,37.268V34c0-0.553-0.447-1-1-1s-1,0.447-1,1v3.268l-2.83-1.634  C5.691,35.357,5.08,35.521,4.804,36c-0.276,0.479-0.112,1.09,0.366,1.366L8,39l-2.83,1.634C4.691,40.91,4.527,41.521,4.804,42  c0.186,0.321,0.521,0.5,0.867,0.5c0.17,0,0.342-0.043,0.499-0.134L9,40.732V44c0,0.553,0.447,1,1,1s1-0.447,1-1v-3.268l2.83,1.634  c0.157,0.091,0.329,0.134,0.499,0.134c0.346,0,0.682-0.179,0.867-0.5C15.473,41.521,15.309,40.91,14.83,40.634z"
   id="path36" />
<path
   style="fill:#CAD1D8;"
   d="M31,60L31,60c-0.453,0-0.913-0.026-1.368-0.076c-5.484-0.608-9.922-5.029-10.551-10.512  c-0.502-4.383,1.374-8.604,4.919-11.151V7c0-3.859,3.141-7,7-7s7,3.141,7,7v31.261c3.141,2.257,5,5.857,5,9.739  c0,3.205-1.248,6.219-3.515,8.485C37.219,58.751,34.205,60,31,60z M31,2c-2.757,0-5,2.243-5,5v32.328l-0.453,0.296  c-3.199,2.089-4.915,5.752-4.479,9.56c0.524,4.565,4.219,8.246,8.785,8.752c3.064,0.346,6.061-0.707,8.219-2.864  C39.96,53.183,41,50.671,41,48c0-3.387-1.699-6.518-4.547-8.375L36,39.329V7C36,4.243,33.757,2,31,2z"
   id="path38" />
<g
   id="g40">
</g>
<g
   id="g42">
</g>
<g
   id="g44">
</g>
<g
   id="g46">
</g>
<g
   id="g48">
</g>
<g
   id="g50">
</g>
<g
   id="g52">
</g>
<g
   id="g54">
</g>
<g
   id="g56">
</g>
<g
   id="g58">
</g>
<g
   id="g60">
</g>
<g
   id="g62">
</g>
<g
   id="g64">
</g>
<g
   id="g66">
</g>
<g
   id="g68">
</g>
</svg>