<?xml version="1.0" encoding="iso-8859-1"?>
<!-- Generator: Adobe Illustrator 19.0.0, SVG Export Plug-In . SVG Version: 6.00 Build 0)  -->
<svg version="1.1" id="Capa_1" xmlns="http://www.w3.org/2000/svg" xmlns:xlink="http://www.w3.org/1999/xlink" x="0px" y="0px"
	 viewBox="0 0 512 512" style="enable-background:new 0 0 512 512;" xml:space="preserve">
<path style="fill:#FEDBAB;" d="M481,332c0-16.5-13.5-30-30-30c16.5,0,30-13.5,30-30s-13.5-30-30-30H328.001
	C346.3,187.099,346,168.6,346,135c0-19.501-12.599-36.301-30-42.299c-4.799-1.8-9.6-2.701-15-2.701h-9
	c-5.7,0-12.9,4.501-14.401,11.4l-8.399,32.699C256.601,182.999,216.099,242,166,242v210l66.899,22.2
	c15.3,5.099,31.201,7.8,47.401,7.8H421c16.569,0,30-13.433,30-30c0-16.569-13.431-30-30-30h30c16.5,0,30-13.5,30-30s-13.5-30-30-30
	C467.5,362,481,348.5,481,332z"/>
<path style="fill:#FEC478;" d="M421,482c16.569,0,30-13.433,30-30c0-16.569-13.431-30-30-30h30c16.5,0,30-13.5,30-30s-13.5-30-30-30
	c16.5,0,30-13.5,30-30s-13.5-30-30-30c16.5,0,30-13.5,30-30s-13.5-30-30-30H328.001C346.3,187.099,346,168.6,346,135
	c0-19.501-12.599-36.301-30-42.299c-4.799-1.8-9.6-2.701-15-2.701v392H421z"/>
<g>
	<path style="fill:#1689FC;" d="M136,512H46c-8.291,0-15-6.709-15-15V227c0-8.291,6.709-15,15-15h90c24.814,0,45,20.186,45,45v210
		C181,491.814,160.814,512,136,512z"/>
	<circle style="fill:#1689FC;" cx="106" cy="437" r="15"/>
	<path style="fill:#1689FC;" d="M316,15v30c0,8.401-6.599,15-15,15s-15-6.599-15-15V15c0-8.401,6.599-15,15-15S316,6.599,316,15z"/>
	<path style="fill:#1689FC;" d="M216.142,86.353l-21.211-21.211c-5.859-5.859-5.859-15.352,0-21.211s15.352-5.859,21.211,0
		l21.211,21.211c5.859,5.859,5.859,15.352,0,21.211C231.493,92.212,222.001,92.212,216.142,86.353z"/>
</g>
<g>
	<path style="fill:#136EF1;" d="M364.647,86.353c-5.859-5.859-5.859-15.352,0-21.211l21.211-21.211
		c5.859-5.859,15.352-5.859,21.211,0s5.859,15.352,0,21.211l-21.211,21.211C379.999,92.212,370.507,92.212,364.647,86.353z"/>
	<path style="fill:#136EF1;" d="M316,15v30c0,8.401-6.599,15-15,15V0C309.401,0,316,6.599,316,15z"/>
</g>
<g>
</g>
<g>
</g>
<g>
</g>
<g>
</g>
<g>
</g>
<g>
</g>
<g>
</g>
<g>
</g>
<g>
</g>
<g>
</g>
<g>
</g>
<g>
</g>
<g>
</g>
<g>
</g>
<g>
</g>
</svg>
