<?xml version="1.0" encoding="iso-8859-1"?>
<!-- Generator: Adobe Illustrator 16.0.0, SVG Export Plug-In . SVG Version: 6.00 Build 0)  -->
<!DOCTYPE svg PUBLIC "-//W3C//DTD SVG 1.1//EN" "http://www.w3.org/Graphics/SVG/1.1/DTD/svg11.dtd">
<svg version="1.1" id="Capa_1" xmlns="http://www.w3.org/2000/svg" xmlns:xlink="http://www.w3.org/1999/xlink" x="0px" y="0px"
	 width="95.334px" height="95.334px" viewBox="0 0 95.334 95.334" style="enable-background:new 0 0 95.334 95.334;"
	 xml:space="preserve">
<g>
	<g>
		<path d="M47.784,0C21.447,0,0,21.449,0,47.904c0,26.215,21.447,47.43,47.784,47.43c26.337,0,47.55-21.098,47.55-47.43
			C95.334,21.449,73.168,0,47.784,0z M47.784,89.011c-22.639,0-41.229-18.465-41.229-41.106c0-22.757,18.591-41.591,41.229-41.591
			c22.526,0,40.995,18.95,40.995,41.591C88.779,70.309,70.311,89.011,47.784,89.011z"/>
		<path d="M66.139,22.644c-2.973,0-4.17,1.311-5.479,3.934L47.787,53.389H47.67L34.68,26.577c-1.313-2.624-2.502-3.934-5.482-3.934
			c-3.932,0-5.244,2.502-5.244,4.884v41.587c0,2.27,1.791,3.575,3.932,3.575c1.906,0,4.051-1.306,4.051-3.575v-30.98h0.121
			l11.797,24.071c0.835,1.668,1.91,2.626,3.816,2.626c1.901,0,2.979-0.958,3.813-2.626l11.795-24.071H63.4v30.98
			c0,2.27,2.143,3.575,4.05,3.575c2.147,0,3.932-1.306,3.932-3.575V27.528C71.381,25.146,70.074,22.644,66.139,22.644z"/>
	</g>
</g>
<g>
</g>
<g>
</g>
<g>
</g>
<g>
</g>
<g>
</g>
<g>
</g>
<g>
</g>
<g>
</g>
<g>
</g>
<g>
</g>
<g>
</g>
<g>
</g>
<g>
</g>
<g>
</g>
<g>
</g>
</svg>
