<?xml version="1.0" encoding="iso-8859-1"?>
<!-- Generator: Adobe Illustrator 19.0.0, SVG Export Plug-In . SVG Version: 6.00 Build 0)  -->
<svg version="1.1" id="Capa_1" xmlns="http://www.w3.org/2000/svg" xmlns:xlink="http://www.w3.org/1999/xlink" x="0px" y="0px"
	 viewBox="0 0 512 512" style="enable-background:new 0 0 512 512;" xml:space="preserve">
<g>
	<g>
		<path d="M508.875,248.458l-74.667-74.667c-3.042-3.052-7.646-3.948-11.625-2.313c-3.979,1.646-6.583,5.542-6.583,9.854v32
			c0,2.833,1.125,5.542,3.125,7.542l13.792,13.792H277.333V79.083l13.792,13.792c2,2,4.708,3.125,7.542,3.125h32
			c4.313,0,8.208-2.594,9.854-6.583c1.646-3.99,0.729-8.573-2.313-11.625L263.542,3.125c-4.167-4.167-10.917-4.167-15.083,0
			l-74.667,74.667c-3.042,3.052-3.958,7.635-2.313,11.625c1.646,3.99,5.542,6.583,9.854,6.583h32c2.833,0,5.542-1.125,7.542-3.125
			l13.792-13.792v155.583H79.083l13.792-13.792c2-2,3.125-4.708,3.125-7.542v-32c0-4.313-2.604-8.208-6.583-9.854
			c-3.958-1.656-8.583-0.75-11.625,2.313L3.125,248.458c-4.167,4.167-4.167,10.917,0,15.083l74.667,74.667
			c2.042,2.042,4.771,3.125,7.542,3.125c1.375,0,2.771-0.26,4.083-0.813c3.979-1.646,6.583-5.542,6.583-9.854v-32
			c0-2.833-1.125-5.542-3.125-7.542l-13.792-13.792h155.583v155.583l-13.792-13.792c-2-2-4.708-3.125-7.542-3.125h-32
			c-4.313,0-8.208,2.594-9.854,6.583c-1.646,3.99-0.729,8.573,2.313,11.625l74.667,74.667c2.083,2.083,4.813,3.125,7.542,3.125
			c2.729,0,5.458-1.042,7.542-3.125l74.667-74.667c3.042-3.052,3.958-7.635,2.313-11.625c-1.646-3.99-5.542-6.583-9.854-6.583h-32
			c-2.833,0-5.542,1.125-7.542,3.125l-13.792,13.792V277.333h155.583l-13.792,13.792c-2,2-3.125,4.708-3.125,7.542v32
			c0,4.313,2.604,8.208,6.583,9.854c1.313,0.552,2.708,0.813,4.083,0.813c2.771,0,5.5-1.083,7.542-3.125l74.667-74.667
			C513.042,259.375,513.042,252.625,508.875,248.458z"/>
	</g>
</g>
<g>
</g>
<g>
</g>
<g>
</g>
<g>
</g>
<g>
</g>
<g>
</g>
<g>
</g>
<g>
</g>
<g>
</g>
<g>
</g>
<g>
</g>
<g>
</g>
<g>
</g>
<g>
</g>
<g>
</g>
</svg>
