<?xml version="1.0" encoding="iso-8859-1"?>
<!-- Generator: Adobe Illustrator 19.0.0, SVG Export Plug-In . SVG Version: 6.00 Build 0)  -->
<svg version="1.1" id="Capa_1" xmlns="http://www.w3.org/2000/svg" xmlns:xlink="http://www.w3.org/1999/xlink" x="0px" y="0px"
	 viewBox="0 0 512 512" style="enable-background:new 0 0 512 512;" xml:space="preserve">
<circle style="fill:#FEE572;" cx="256" cy="256" r="256"/>
<path style="fill:#FFC100;" d="M510.64,282.507L373.089,144.956c-10.599-11.173-22.778-20.83-36.183-28.612l-61.97-62.677h-37.871
	v42.056c-73.996,8.65-132.692,67.346-141.342,141.342H53.667v37.871l63.206,62.875c7.69,13.049,17.163,24.919,28.084,35.28
	l137.55,137.55C402.723,498.273,498.273,402.723,510.64,282.507z"/>
<path style="fill:#006EF5;" d="M458.333,237.064h-42.056c-8.65-73.996-67.346-132.692-141.342-141.342V53.667h-37.871v42.056
	c-73.996,8.65-132.692,67.346-141.342,141.342H53.667v37.871h42.056c8.65,73.996,67.346,132.692,141.342,141.342v42.056h37.871
	v-42.056c73.996-8.65,132.692-67.346,141.342-141.342h42.056v-37.872H458.333z M274.936,379.108V342.76h-37.871v36.348
	c-53.62-8.179-95.993-50.553-104.173-104.173h36.348v-37.871h-36.348c8.179-53.62,50.553-95.993,104.173-104.173v36.348h37.871
	v-36.348c53.62,8.179,95.993,50.553,104.173,104.173h-36.348v37.871h36.348C370.929,328.556,328.556,370.929,274.936,379.108z"/>
<path style="fill:#0043A3;" d="M416.28,237.06c-8.65-73.99-67.35-132.69-141.34-141.34V53.67H256v115.57h18.94v-36.35
	c53.62,8.18,95.99,50.55,104.17,104.17h-36.35v37.88h36.35c-8.18,53.62-50.55,95.99-104.17,104.17v-36.35H256v115.57h18.94v-42.05
	c73.99-8.65,132.69-67.35,141.34-141.34h42.05v-37.88H416.28z"/>
<g>
</g>
<g>
</g>
<g>
</g>
<g>
</g>
<g>
</g>
<g>
</g>
<g>
</g>
<g>
</g>
<g>
</g>
<g>
</g>
<g>
</g>
<g>
</g>
<g>
</g>
<g>
</g>
<g>
</g>
</svg>
