<?xml version="1.0" encoding="iso-8859-1"?>
<!-- Generator: Adobe Illustrator 19.0.0, SVG Export Plug-In . SVG Version: 6.00 Build 0)  -->
<svg version="1.1" id="Capa_1" xmlns="http://www.w3.org/2000/svg" xmlns:xlink="http://www.w3.org/1999/xlink" x="0px" y="0px"
	 viewBox="0 0 512 512" style="enable-background:new 0 0 512 512;" xml:space="preserve">
<g>
	<path style="fill:#00A5FF;" d="M453.71,409.92V512H58.29V409.92c0-85.15,69.28-154.42,154.42-154.42h86.58
		C384.43,255.5,453.71,324.77,453.71,409.92z"/>
	<path style="fill:#00A5FF;" d="M375.41,119.41c0,65.84-53.57,119.41-119.41,119.41s-119.41-53.57-119.41-119.41S190.16,0,256,0
		S375.41,53.57,375.41,119.41z"/>
</g>
<g>
	<path style="fill:#0087FF;" d="M256,238.82V0c65.84,0,119.41,53.57,119.41,119.41S321.84,238.82,256,238.82z"/>
	<path style="fill:#0087FF;" d="M453.71,409.92V512H256V255.5h43.29C384.43,255.5,453.71,324.77,453.71,409.92z"/>
</g>
<g>
</g>
<g>
</g>
<g>
</g>
<g>
</g>
<g>
</g>
<g>
</g>
<g>
</g>
<g>
</g>
<g>
</g>
<g>
</g>
<g>
</g>
<g>
</g>
<g>
</g>
<g>
</g>
<g>
</g>
</svg>
