<svg height="512pt" viewBox="0 0 512 512" width="512pt" xmlns="http://www.w3.org/2000/svg"><path d="m480.671875 256c0 123.710938-100.289063 224-224 224s-224-100.289062-224-224 100.289063-224 224-224 224 100.289062 224 224zm0 0" fill="#fe9d58"/><path d="m384.671875 256c0 70.691406-57.308594 128-128 128s-128-57.308594-128-128 57.308594-128 128-128 128 57.308594 128 128zm0 0" fill="#e76e54"/><g fill="#ffcb5a"><path d="m239.328125 0h32v208h-32zm0 0"/><path d="m240.671875 304h32v208h-32zm0 0"/><path d="m0 240.671875h208v32h-208zm0 0"/><path d="m304 239.328125h208v32h-208zm0 0"/></g><path d="m240.671875 240h32v32h-32zm0 0" fill="#fff"/></svg>