<?xml version="1.0" encoding="iso-8859-1"?>
<!-- Generator: Adobe Illustrator 21.0.0, SVG Export Plug-In . SVG Version: 6.00 Build 0)  -->
<svg xmlns="http://www.w3.org/2000/svg" xmlns:xlink="http://www.w3.org/1999/xlink" version="1.1" id="Capa_1" x="0px" y="0px" viewBox="0 0 512.075 512.075" style="enable-background:new 0 0 512.075 512.075;" xml:space="preserve" width="512" height="512">
<g>
	<g>
		<path style="fill:#D3D3D8;" d="M462.201,462.201C459.2,465.2,455.3,466.7,451.7,466.7c-3.9,0-7.8-1.5-10.8-4.499l-42.301-42.601    c-5.999-5.7-5.999-15.3,0-21c5.7-5.999,15.3-5.999,21,0l42.601,42.301C467.901,446.901,467.901,456.2,462.201,462.201z"/>
	</g>
	<path style="fill:#BABAC0;" d="M462.201,462.201C459.2,465.2,455.3,466.7,451.7,466.7c-3.9,0-7.8-1.5-10.8-4.499l-42.301-42.601   c-5.999-5.7-5.999-15.3,0-21L462.201,462.201z"/>
	<path style="fill:#76E2F8;" d="M392,197c0,40.499-12.299,77.999-33.3,109.2l-162.7-26.1l-15-2.401L146.1,88.1L196,33.9l30.7-31.5   C320.3,16.8,392,99.5,392,197z"/>
	<path style="fill:#76E2F8;" d="M120,167L90,95.296L8.08,141.68C2.893,159.231,0,177.768,0,197c0,71.508,38.608,133.848,96,167.789   l54-24l16-92.578L120,167z"/>
	<path style="fill:#25D9F8;" d="M392,197c0,40.499-12.299,77.999-33.3,109.2l-162.7-26.1V33.9l30.7-31.5   C320.3,16.8,392,99.5,392,197z"/>
	<path style="fill:#ECECF1;" d="M358.7,306.2c-5.7,8.399-12.301,16.199-19.2,23.699C303.8,368,252.1,392,196,392   c-24.901,0-49.6-4.799-71.499-13.2C114.6,374.9,105,370.101,96,364.701l49.606-49.608c2.813-2.813,4.393-6.628,4.393-10.606V239.49   c0-3.964-1.569-7.767-4.365-10.578l-51.135-51.413C91.5,174.8,90,170.9,90,167v-41.7l-81.899,16.5c3.3-11.699,7.8-22.798,13.2-33.3   C52.5,47.601,115.901,3.3,188.2,0.3c2.701,0,5.099-0.3,7.8-0.3c10.201,0,21.099,0.901,30.7,2.401l42.9,65.199   c2.401,3.602,3.001,9.101,1.8,13.301c-0.899,4.2-3.9,7.5-7.8,9.6L208.1,118.1L196,140.3l-15,30.3v47.1l15,7.5L358.7,306.2z"/>
	<path style="fill:#D3D3D8;" d="M208.1,118.1L196,140.3V0c10.201,0,21.099,0.901,30.7,2.401l42.9,65.199   c2.401,3.602,3.001,9.101,1.8,13.301c-0.899,4.2-3.9,7.5-7.8,9.6L208.1,118.1z"/>
	<path style="fill:#D3D3D8;" d="M358.7,306.2c-5.7,8.399-12.301,16.199-19.2,23.699C303.8,368,252.1,392,196,392V225.2L358.7,306.2z   "/>
	<path style="fill:#7C8388;" d="M503.301,503.301c-11.7,11.699-30.901,11.699-42.601,0l-31.8-31.8c-5.7-6-5.7-15.601,0-21.301   l10.801-10.499l10.499-10.801c5.7-5.7,15.3-5.7,21.301,0l31.8,31.8C514.999,472.4,514.999,491.6,503.301,503.301z"/>
	<path style="fill:#575F64;" d="M503.301,503.301c-11.7,11.699-30.901,11.699-42.601,0l-31.8-31.8c-5.7-6-5.7-15.601,0-21.301   l10.801-10.499L503.301,503.301z"/>
	<path style="fill:#7C8388;" d="M418.1,269.9c-41.1-41.1-107.401-41.1-148.2,0c-41.1,41.1-41.1,107.401,0,148.2   c41.1,41.1,107.401,41.1,148.2,0C459.2,377,459.2,310.699,418.1,269.9z"/>
	<path style="fill:#575F64;" d="M269.9,269.9l148.2,148.2c-40.8,41.1-107.1,41.1-148.2,0C228.8,377.3,228.8,311,269.9,269.9z"/>
	<path style="fill:#ECECF1;" d="M397.099,397.099c-29.399,29.101-76.8,29.101-106.199,0c-29.101-29.399-29.101-76.8,0-106.199   c29.399-29.101,76.8-29.101,106.199,0C426.2,320.3,426.2,367.7,397.099,397.099z"/>
	<path style="fill:#D3D3D8;" d="M397.099,397.099c-29.399,29.101-76.8,29.101-106.199,0c-29.101-29.399-29.101-76.8,0-106.199   L397.099,397.099z"/>
</g>















</svg>
