<?xml version="1.0" encoding="UTF-8" standalone="no"?>
<!-- Generator: Adobe Illustrator 18.1.1, SVG Export Plug-In . SVG Version: 6.00 Build 0)  -->

<svg
   xmlns:dc="http://purl.org/dc/elements/1.1/"
   xmlns:cc="http://creativecommons.org/ns#"
   xmlns:rdf="http://www.w3.org/1999/02/22-rdf-syntax-ns#"
   xmlns:svg="http://www.w3.org/2000/svg"
   xmlns="http://www.w3.org/2000/svg"
   xmlns:sodipodi="http://sodipodi.sourceforge.net/DTD/sodipodi-0.dtd"
   xmlns:inkscape="http://www.inkscape.org/namespaces/inkscape"
   version="1.1"
   id="Capa_1"
   x="0px"
   y="0px"
   viewBox="0 0 26.955 26.955"
   style="enable-background:new 0 0 26.955 26.955;"
   xml:space="preserve"
   sodipodi:docname="up-arrow.svg"
   inkscape:version="0.92.4 (unknown)"><metadata
   id="metadata42"><rdf:RDF><cc:Work
       rdf:about=""><dc:format>image/svg+xml</dc:format><dc:type
         rdf:resource="http://purl.org/dc/dcmitype/StillImage" /><dc:title></dc:title></cc:Work></rdf:RDF></metadata><defs
   id="defs40" /><sodipodi:namedview
   pagecolor="#ffffff"
   bordercolor="#666666"
   borderopacity="1"
   objecttolerance="10"
   gridtolerance="10"
   guidetolerance="10"
   inkscape:pageopacity="0"
   inkscape:pageshadow="2"
   inkscape:window-width="480"
   inkscape:window-height="1057"
   id="namedview38"
   showgrid="false"
   inkscape:zoom="8.755333"
   inkscape:cx="11.307394"
   inkscape:cy="13.4775"
   inkscape:window-x="1440"
   inkscape:window-y="0"
   inkscape:window-maximized="0"
   inkscape:current-layer="Capa_1" />
<g
   id="g5"
   transform="rotate(-90,13.4775,13.477)">
	<g
   id="c193_arrow">
		<path
   style="fill:#030104"
   d="M 24.81,0.615 H 2.145 C 0.959,0.615 0,1.574 0,2.759 v 21.438 c 0,1.181 0.959,2.142 2.145,2.142 H 24.81 c 1.184,0 2.145,-0.961 2.145,-2.142 V 2.759 C 26.954,1.574 25.993,0.615 24.81,0.615 Z m -2.534,14.243 -5.978,5.98 c -0.777,0.775 -1.998,0.812 -2.723,0.087 -0.729,-0.729 -0.691,-1.948 0.088,-2.722 L 16.522,15.34 H 5.936 c -1.031,0 -1.867,-0.837 -1.867,-1.862 0,-1.031 0.835,-1.867 1.867,-1.867 H 16.577 L 13.703,8.739 C 12.938,7.972 12.906,6.763 13.635,6.035 14.364,5.308 15.574,5.339 16.339,6.103 l 5.901,5.899 c 0.024,0.025 0.043,0.056 0.067,0.084 0.019,0.016 0.042,0.027 0.061,0.048 0.727,0.727 0.689,1.947 -0.092,2.724 z"
   id="path2"
   inkscape:connector-curvature="0" />
	</g>
</g>
<g
   id="g7">
</g>
<g
   id="g9">
</g>
<g
   id="g11">
</g>
<g
   id="g13">
</g>
<g
   id="g15">
</g>
<g
   id="g17">
</g>
<g
   id="g19">
</g>
<g
   id="g21">
</g>
<g
   id="g23">
</g>
<g
   id="g25">
</g>
<g
   id="g27">
</g>
<g
   id="g29">
</g>
<g
   id="g31">
</g>
<g
   id="g33">
</g>
<g
   id="g35">
</g>
</svg>