<?xml version="1.0" encoding="UTF-8" standalone="no"?>
<!-- Generator: Adobe Illustrator 19.0.0, SVG Export Plug-In . SVG Version: 6.00 Build 0)  -->

<svg
   xmlns:dc="http://purl.org/dc/elements/1.1/"
   xmlns:cc="http://creativecommons.org/ns#"
   xmlns:rdf="http://www.w3.org/1999/02/22-rdf-syntax-ns#"
   xmlns:svg="http://www.w3.org/2000/svg"
   xmlns="http://www.w3.org/2000/svg"
   xmlns:sodipodi="http://sodipodi.sourceforge.net/DTD/sodipodi-0.dtd"
   xmlns:inkscape="http://www.inkscape.org/namespaces/inkscape"
   version="1.1"
   id="Capa_1"
   x="0px"
   y="0px"
   viewBox="0 0 510.625 510.625"
   style="enable-background:new 0 0 510.625 510.625;"
   xml:space="preserve"
   sodipodi:docname="walker.svg"
   inkscape:version="0.92.4 (unknown)"><metadata
   id="metadata63"><rdf:RDF><cc:Work
       rdf:about=""><dc:format>image/svg+xml</dc:format><dc:type
         rdf:resource="http://purl.org/dc/dcmitype/StillImage" /><dc:title></dc:title></cc:Work></rdf:RDF></metadata><defs
   id="defs61" /><sodipodi:namedview
   pagecolor="#ffffff"
   bordercolor="#666666"
   borderopacity="1"
   objecttolerance="10"
   gridtolerance="10"
   guidetolerance="10"
   inkscape:pageopacity="0"
   inkscape:pageshadow="2"
   inkscape:window-width="1280"
   inkscape:window-height="1057"
   id="namedview59"
   showgrid="false"
   inkscape:zoom="0.4621787"
   inkscape:cx="-106.0196"
   inkscape:cy="255.3125"
   inkscape:window-x="3200"
   inkscape:window-y="0"
   inkscape:window-maximized="0"
   inkscape:current-layer="Capa_1" />
<g
   transform="matrix(-1.25,0,0,-1.25,510.62371,45)"
   id="g26">
	<g
   id="g24">
		<g
   id="g22">
			<path
   style="fill:#f7dece"
   d="m 216.2,-31.929 c 10.57,22.71 2.412,48.902 -18.227,58.516 -20.639,9.614 -54.272,0.876 -59.608,-23.586 -5.291,-24.303 -0.33,-61.315 21.356,-60.302 5.996,0.284 12.038,0.762 17.886,1.695 0.762,-2.856 0.592,-8.67 -0.489,-14.188 -4.198,-21.208 24.701,-31.289 28.877,-10.047 2.435,12.436 -2.207,22.084 -4.244,31.141 5.882,3.915 10.922,9.205 14.449,16.771"
   id="path2"
   inkscape:connector-curvature="0" />
			<path
   style="fill:#292f33"
   d="M 221.582,16.541 C 208.509,33.881 189.554,41.902 155.591,31.093 125.929,21.661 135.259,-3.894 140.845,1.59 c 8.897,8.727 19.991,5.211 19.991,5.211 l 7.191,-26.34 c 0,0 4.016,-2.753 6.281,5.916 2.276,8.67 14.097,8.852 17.533,1.559 5.336,-11.321 -2.651,-12.948 -3.766,-19.467 -3.516,-20.594 19.49,-21.197 19.49,-21.197 0,0 4.358,-2.037 12.925,12.55 8.556,14.587 14.074,39.504 1.092,56.719"
   id="path4"
   inkscape:connector-curvature="0" />
			<path
   style="fill:#eec2ad"
   d="m 251.801,-202.823 c -6.292,0 -11.378,5.086 -11.378,11.378 0,51.428 -53.032,105.21 -53.567,105.745 -4.426,4.449 -4.426,11.651 0.023,16.088 4.449,4.437 11.639,4.426 16.077,0 2.458,-2.469 60.223,-60.939 60.223,-121.833 0,-6.292 -5.086,-11.378 -11.378,-11.378"
   id="path6"
   inkscape:connector-curvature="0" />
			<path
   style="fill:#2a6797"
   d="m 160.779,-362.112 c -12.572,0 -22.756,10.194 -22.756,22.756 v 79.644 c 0,3.959 1.035,7.851 3.004,11.287 l 45.511,79.644 c 6.224,10.911 20.139,14.723 31.039,8.465 10.911,-6.224 14.7,-20.127 8.465,-31.039 l -42.507,-74.399 v -73.603 c 0,-12.56 -10.195,-22.755 -22.756,-22.755"
   id="path8"
   inkscape:connector-curvature="0" />
			<path
   style="fill:#4289c1"
   d="m 263.19,-327.978 c -6.679,0 -13.289,2.924 -17.772,8.545 l -45.511,56.889 c -2.287,2.833 -3.834,6.178 -4.551,9.739 l -11.378,56.889 c -2.469,12.322 5.518,24.326 17.84,26.783 12.379,2.492 24.326,-5.53 26.783,-17.84 l 10.297,-51.473 42.052,-52.565 c 7.851,-9.808 6.258,-24.132 -3.561,-31.983 -4.186,-3.346 -9.204,-4.984 -14.199,-4.984"
   id="path10"
   inkscape:connector-curvature="0" />
			<path
   style="fill:#77b255"
   d="m 240.424,-180.067 c 0,0 0,-11.378 -22.756,-11.378 h -45.511 c -22.756,68.267 -4.085,136.533 22.756,136.533 34.133,0 34.133,-45.511 45.511,-102.4"
   id="path12"
   inkscape:connector-curvature="0" />
			<path
   style="fill:#f7dece"
   d="m 183.535,-100.423 c -0.011,-0.512 -0.751,-51.792 -40.96,-81.954 l 0.114,-0.159 c -2.765,-2.071 -4.665,-5.222 -4.665,-8.943 0,-6.292 5.097,-11.378 11.378,-11.378 2.56,0 4.813,1.001 6.713,2.435 l 0.114,-0.159 c 49.493,37.126 50.062,97.576 50.062,100.124 z"
   id="path14"
   inkscape:connector-curvature="0" />
			<g
   id="g20">
				<path
   style="fill:#292f33"
   d="m 299.383,-317.26 c 3.083,3.083 1.82,7.691 -1.468,10.695 -5.268,4.813 -7.657,6.531 -7.657,6.531 -2.901,1.911 -9.933,4.745 -12.857,1.832 -21.311,-21.22 -37.592,-51.553 -38.184,-62.123 -0.353,-6.235 7.339,-9.728 11.708,-5.359 12.891,12.891 37.285,37.262 48.458,48.424"
   id="path16"
   inkscape:connector-curvature="0" />
				<path
   style="fill:#292f33"
   d="m 182.579,-372.5 c 4.358,-0.034 6.758,4.107 6.576,8.567 -0.273,7.122 -0.728,10.024 -0.728,10.024 -0.671,3.413 -3.584,10.411 -7.726,10.445 -30.06,0.262 -63.101,-9.455 -71.031,-16.452 -4.688,-4.142 -1.775,-12.06 4.403,-12.106 18.239,-0.113 52.714,-0.364 68.506,-0.478"
   id="path18"
   inkscape:connector-curvature="0" />
			</g>
		</g>
	</g>
</g>
<g
   id="g28">
</g>
<g
   id="g30">
</g>
<g
   id="g32">
</g>
<g
   id="g34">
</g>
<g
   id="g36">
</g>
<g
   id="g38">
</g>
<g
   id="g40">
</g>
<g
   id="g42">
</g>
<g
   id="g44">
</g>
<g
   id="g46">
</g>
<g
   id="g48">
</g>
<g
   id="g50">
</g>
<g
   id="g52">
</g>
<g
   id="g54">
</g>
<g
   id="g56">
</g>
</svg>