<?xml version="1.0" encoding="UTF-8" standalone="no"?>
<!-- Generator: Adobe Illustrator 19.0.0, SVG Export Plug-In . SVG Version: 6.00 Build 0)  -->

<svg
   xmlns:dc="http://purl.org/dc/elements/1.1/"
   xmlns:cc="http://creativecommons.org/ns#"
   xmlns:rdf="http://www.w3.org/1999/02/22-rdf-syntax-ns#"
   xmlns:svg="http://www.w3.org/2000/svg"
   xmlns="http://www.w3.org/2000/svg"
   xmlns:sodipodi="http://sodipodi.sourceforge.net/DTD/sodipodi-0.dtd"
   xmlns:inkscape="http://www.inkscape.org/namespaces/inkscape"
   version="1.1"
   id="Capa_1"
   x="0px"
   y="0px"
   viewBox="0 0 60 60"
   style="enable-background:new 0 0 60 60;"
   xml:space="preserve"
   sodipodi:docname="temperature.svg"
   inkscape:version="0.92.4 (unknown)"><metadata
   id="metadata81"><rdf:RDF><cc:Work
       rdf:about=""><dc:format>image/svg+xml</dc:format><dc:type
         rdf:resource="http://purl.org/dc/dcmitype/StillImage" /></cc:Work></rdf:RDF></metadata><defs
   id="defs79" /><sodipodi:namedview
   pagecolor="#ffffff"
   bordercolor="#666666"
   borderopacity="1"
   objecttolerance="10"
   gridtolerance="10"
   guidetolerance="10"
   inkscape:pageopacity="0"
   inkscape:pageshadow="2"
   inkscape:window-width="2560"
   inkscape:window-height="1080"
   id="namedview77"
   showgrid="false"
   inkscape:zoom="3.9333333"
   inkscape:cx="21.101695"
   inkscape:cy="27.966102"
   inkscape:window-x="1920"
   inkscape:window-y="0"
   inkscape:window-maximized="0"
   inkscape:current-layer="Capa_1" />
<path
   style="fill:#D0E8F9;"
   d="M36.5,38.787V7c0-3.314-2.686-6-6-6h0c-3.314,0-6,2.686-6,6v31.787  c-3.341,2.18-5.429,6.121-4.925,10.511c0.575,5.011,4.654,9.076,9.668,9.632C35.881,59.666,41.5,54.489,41.5,48  C41.5,44.14,39.508,40.75,36.5,38.787z"
   id="path2" />
<path
   style="fill:#E64C3C;"
   d="M31.5,43.101V6c0-0.553-0.448-1-1-1s-1,0.447-1,1v37.101c-2.282,0.463-4,2.48-4,4.899  c0,2.761,2.239,5,5,5s5-2.239,5-5C35.5,45.581,33.782,43.564,31.5,43.101z"
   id="path4" />
<path
   style="fill:#FFFFFF;"
   d="M26.5,8h-2c-0.552,0-1-0.447-1-1s0.448-1,1-1h2c0.552,0,1,0.447,1,1S27.052,8,26.5,8z"
   id="path6" />
<path
   style="fill:#FFFFFF;"
   d="M26.5,13h-2c-0.552,0-1-0.447-1-1s0.448-1,1-1h2c0.552,0,1,0.447,1,1S27.052,13,26.5,13z"
   id="path8" />
<path
   style="fill:#FFFFFF;"
   d="M26.5,13h-2c-0.552,0-1-0.447-1-1s0.448-1,1-1h2c0.552,0,1,0.447,1,1S27.052,13,26.5,13z"
   id="path10" />
<path
   style="fill:#FFFFFF;"
   d="M26.5,18h-2c-0.552,0-1-0.447-1-1s0.448-1,1-1h2c0.552,0,1,0.447,1,1S27.052,18,26.5,18z"
   id="path12" />
<path
   style="fill:#FFFFFF;"
   d="M26.5,23h-2c-0.552,0-1-0.447-1-1s0.448-1,1-1h2c0.552,0,1,0.447,1,1S27.052,23,26.5,23z"
   id="path14" />
<path
   style="fill:#FFFFFF;"
   d="M26.5,28h-2c-0.552,0-1-0.447-1-1s0.448-1,1-1h2c0.552,0,1,0.447,1,1S27.052,28,26.5,28z"
   id="path16" />
<path
   style="fill:#FFFFFF;"
   d="M26.5,28h-2c-0.552,0-1-0.447-1-1s0.448-1,1-1h2c0.552,0,1,0.447,1,1S27.052,28,26.5,28z"
   id="path18" />
<path
   style="fill:#FFFFFF;"
   d="M26.5,33h-2c-0.552,0-1-0.447-1-1s0.448-1,1-1h2c0.552,0,1,0.447,1,1S27.052,33,26.5,33z"
   id="path20" />
<path
   style="fill:#FFFFFF;"
   d="M26.5,38h-2c-0.552,0-1-0.447-1-1s0.448-1,1-1h2c0.552,0,1,0.447,1,1S27.052,38,26.5,38z"
   id="path22" />
<path
   style="fill:#FFFFFF;"
   d="M36.5,10h-2c-0.552,0-1-0.447-1-1s0.448-1,1-1h2c0.552,0,1,0.447,1,1S37.052,10,36.5,10z"
   id="path24" />
<path
   style="fill:#FFFFFF;"
   d="M36.5,15h-2c-0.552,0-1-0.447-1-1s0.448-1,1-1h2c0.552,0,1,0.447,1,1S37.052,15,36.5,15z"
   id="path26" />
<path
   style="fill:#FFFFFF;"
   d="M36.5,15h-2c-0.552,0-1-0.447-1-1s0.448-1,1-1h2c0.552,0,1,0.447,1,1S37.052,15,36.5,15z"
   id="path28" />
<path
   style="fill:#FFFFFF;"
   d="M36.5,20h-2c-0.552,0-1-0.447-1-1s0.448-1,1-1h2c0.552,0,1,0.447,1,1S37.052,20,36.5,20z"
   id="path30" />
<path
   style="fill:#FFFFFF;"
   d="M36.5,25h-2c-0.552,0-1-0.447-1-1s0.448-1,1-1h2c0.552,0,1,0.447,1,1S37.052,25,36.5,25z"
   id="path32" />
<path
   style="fill:#FFFFFF;"
   d="M36.5,30h-2c-0.552,0-1-0.447-1-1s0.448-1,1-1h2c0.552,0,1,0.447,1,1S37.052,30,36.5,30z"
   id="path34" />
<path
   style="fill:#FFFFFF;"
   d="M36.5,30h-2c-0.552,0-1-0.447-1-1s0.448-1,1-1h2c0.552,0,1,0.447,1,1S37.052,30,36.5,30z"
   id="path36" />
<path
   style="fill:#FFFFFF;"
   d="M36.5,35h-2c-0.552,0-1-0.447-1-1s0.448-1,1-1h2c0.552,0,1,0.447,1,1S37.052,35,36.5,35z"
   id="path38" />
<path
   style="fill:#e0e8e4;fill-opacity:1"
   d="M50.328,16.828L50.328,16.828c-1.562,1.562-4.095,1.562-5.657,0l0,0  c-1.562-1.562-1.562-4.095,0-5.657L47.5,8.343l2.828,2.828C51.891,12.734,51.891,15.266,50.328,16.828z"
   id="path40" />
<path
   style="fill:#e0e8e4;fill-opacity:1"
   d="M15.328,37.828L15.328,37.828c-1.562,1.562-4.095,1.562-5.657,0l0,0  c-1.562-1.562-1.562-4.095,0-5.657l2.828-2.828l2.828,2.828C16.891,33.734,16.891,36.266,15.328,37.828z"
   id="path42" />
<path
   style="fill:#CAD1D8;"
   d="M30.5,60L30.5,60c-0.453,0-0.914-0.026-1.368-0.076c-5.485-0.608-9.923-5.029-10.551-10.512  c-0.502-4.383,1.374-8.605,4.919-11.151V7c0-3.859,3.14-7,7-7s7,3.141,7,7v31.261c3.141,2.257,5,5.857,5,9.739  c0,3.205-1.248,6.219-3.515,8.485C36.719,58.751,33.706,60,30.5,60z M30.5,2c-2.757,0-5,2.243-5,5v32.328l-0.454,0.297  c-3.199,2.088-4.915,5.75-4.478,9.559c0.523,4.565,4.217,8.246,8.785,8.752c3.064,0.346,6.061-0.707,8.218-2.864  C39.46,53.183,40.5,50.671,40.5,48c0-3.387-1.7-6.518-4.546-8.375L35.5,39.329V7C35.5,4.243,33.257,2,30.5,2z"
   id="path44" />
<g
   id="g46">
</g>
<g
   id="g48">
</g>
<g
   id="g50">
</g>
<g
   id="g52">
</g>
<g
   id="g54">
</g>
<g
   id="g56">
</g>
<g
   id="g58">
</g>
<g
   id="g60">
</g>
<g
   id="g62">
</g>
<g
   id="g64">
</g>
<g
   id="g66">
</g>
<g
   id="g68">
</g>
<g
   id="g70">
</g>
<g
   id="g72">
</g>
<g
   id="g74">
</g>
</svg>